# xmcd CD database file
#
# Track frame offsets:
#	150
#	28217
#	43657
#	68712
#	87157
#	109997
#	126332
#	148697
#	180207
#	195605
#	216762
#	235142
#	253742
#
# Disc length: 3499 seconds
#
# Revision: 0
# Processed by: cddbd v1.5.2PL0 Copyright (c) Steve Scherf et al.
# Submitted via: CDex 1.51
#
DISCID=bb0da90d
DTITLE=Banegas - Sinfonía Virtual Parte 3: Terra
DYEAR=1994
DGENRE=New Age
TTITLE0=Viaje al corazón de la tierra
TTITLE1=En las piedras de cuzco (inst)
TTITLE2=Pangea
TTITLE3=Tercer planeta, tercer milenio
TTITLE4=Estampida al oasis
TTITLE5=Tierra de blues
TTITLE6=Tutankamon
TTITLE7=Terremoto
TTITLE8=En las piedras de cuzco
TTITLE9=Candombe del coati
TTITLE10=Canto de madre tierra
TTITLE11=De semillas y mercados
TTITLE12=Desertización
EXTD=YEAR: 1994
EXTT0=
EXTT1=
EXTT2=
EXTT3=
EXTT4=
EXTT5=
EXTT6=
EXTT7=
EXTT8=
EXTT9=
EXTT10=
EXTT11=
EXTT12=
PLAYORDER=
